<?xml version="1.0" encoding="UTF-8" standalone="no"?>
<!DOCTYPE svg PUBLIC "-//W3C//DTD SVG 1.1//EN" "http://www.w3.org/Graphics/SVG/1.1/DTD/svg11.dtd">
<svg width="100%" height="100%" viewBox="0 0 1024 1024" version="1.1" xmlns="http://www.w3.org/2000/svg" xmlns:xlink="http://www.w3.org/1999/xlink" xml:space="preserve" xmlns:serif="http://www.serif.com/" style="fill-rule:evenodd;clip-rule:evenodd;stroke-linecap:round;stroke-linejoin:round;stroke-miterlimit:1.5;">
    <g transform="matrix(1,0,0,1,9.87036,-1.98157)">
        <path d="M653.501,370.189C655.517,362.627 636.762,373.741 610.1,370.321C579.572,366.405 533.274,348.507 522.121,281.965C515.182,240.563 545.459,194.847 584.44,174.371C616.124,157.727 706.346,162.031 737.294,186.778C768.242,211.526 787.512,236.197 770.127,322.856C763.256,357.103 762.871,356.88 737.165,457.325C705.924,579.404 819.849,582.565 820.099,587.141C821.61,614.9 597.679,613.221 587.849,865.287C583.885,888.391 470.85,712.284 534.868,588.377C598.886,464.469 653.501,370.189 653.501,370.189Z" style="fill:white;stroke:black;stroke-width:30px;"/>
    </g>
</svg>
