<?xml version="1.0" encoding="UTF-8"?>
<!--Generator: Apple Native CoreSVG 326-->
<!DOCTYPE svg
PUBLIC "-//W3C//DTD SVG 1.1//EN"
       "http://www.w3.org/Graphics/SVG/1.1/DTD/svg11.dtd">
<svg version="1.1" xmlns="http://www.w3.org/2000/svg" xmlns:xlink="http://www.w3.org/1999/xlink" viewBox="0 0 127.197 127.295">
 <g>
  <rect height="127.295" opacity="0" width="127.197" x="0" y="0"/>
  <path d="M127.197 63.623C127.197 98.6328 98.6328 127.197 63.5742 127.197C28.5645 127.197 0 98.6328 0 63.623C0 28.5645 28.5645 0 63.5742 0C98.6328 0 127.197 28.5645 127.197 63.623ZM88.3301 31.7871L26.2207 61.1816C22.4609 62.9883 23.0957 68.3594 28.0762 68.3594L56.3965 68.4082C57.4219 68.4082 58.1055 69.0918 58.1055 70.166L58.1543 98.1445C58.1543 103.32 63.5742 103.76 65.2832 100.098L94.5312 37.9395C96.6309 33.3984 92.8223 29.6875 88.3301 31.7871Z" fill="white" fill-opacity="0.85"/>
 </g>
</svg>
