<?xml version="1.0" encoding="UTF-8"?>
<!--Generator: Apple Native CoreSVG 326-->
<!DOCTYPE svg
PUBLIC "-//W3C//DTD SVG 1.1//EN"
       "http://www.w3.org/Graphics/SVG/1.1/DTD/svg11.dtd">
<svg version="1.1" xmlns="http://www.w3.org/2000/svg" xmlns:xlink="http://www.w3.org/1999/xlink" viewBox="0 0 155.327 114.893">
 <g>
  <rect height="114.893" opacity="0" width="155.327" x="0" y="0"/>
  <path d="M1.32053 43.8477C3.17599 45.7031 5.71506 45.5078 7.57053 43.7012L14.2112 37.1094L24.4651 26.2695L24.4651 96.0938C24.4651 108.594 30.9104 114.893 43.508 114.893L96.9748 114.893C100.002 114.893 101.809 113.281 101.76 110.596C101.711 107.861 100.002 106.25 96.9748 106.25L43.6545 106.25C36.8186 106.25 33.1076 102.637 33.1076 95.6543L33.1076 26.1719L43.4592 37.1094L50.1487 43.7012C51.9553 45.459 54.4944 45.7031 56.3498 43.8477C58.2053 41.9922 58.1076 39.4043 56.2522 37.5977L34.3283 15.7227C30.8127 12.3047 26.8576 12.3047 23.342 15.7227L1.46701 37.5977C-0.388459 39.4043-0.534943 41.9922 1.32053 43.8477ZM53.5666 4.44336C53.6154 7.17773 55.3244 8.78906 58.3029 8.78906L111.672 8.78906C118.459 8.78906 122.17 12.4023 122.17 19.3848L122.17 88.8672L111.819 77.9297L105.178 71.3379C103.371 69.5801 100.832 69.3359 98.9279 71.1914C97.1213 72.998 97.219 75.6348 99.0744 77.4414L120.998 99.3164C124.465 102.734 128.469 102.734 131.936 99.3164L153.86 77.4414C155.715 75.6348 155.813 72.998 154.006 71.1914C152.151 69.3359 149.612 69.5312 147.756 71.3379L141.115 77.9297L130.813 88.7695L130.813 18.9453C130.813 6.44531 124.416 0.146484 111.819 0.146484L58.3029 0.146484C55.3244 0.146484 53.5178 1.75781 53.5666 4.44336Z" fill="white" fill-opacity="0.85"/>
 </g>
</svg>
