<?xml version="1.0" encoding="UTF-8"?>
<!--Generator: Apple Native CoreSVG 326-->
<!DOCTYPE svg
PUBLIC "-//W3C//DTD SVG 1.1//EN"
       "http://www.w3.org/Graphics/SVG/1.1/DTD/svg11.dtd">
<svg version="1.1" xmlns="http://www.w3.org/2000/svg" xmlns:xlink="http://www.w3.org/1999/xlink" viewBox="0 0 127.197 127.295">
 <g>
  <rect height="127.295" opacity="0" width="127.197" x="0" y="0"/>
  <path d="M127.197 63.623C127.197 98.6328 98.6328 127.197 63.5742 127.197C28.5645 127.197 0 98.6328 0 63.623C0 28.5645 28.5645 0 63.5742 0C98.6328 0 127.197 28.5645 127.197 63.623ZM58.9355 38.2324L58.9355 58.9355L38.2812 58.9355C35.4492 58.9355 33.4961 60.8398 33.4961 63.6719C33.4961 66.3574 35.498 68.2129 38.2812 68.2129L58.9355 68.2129L58.9355 88.9648C58.9355 91.6504 60.8398 93.6523 63.5254 93.6523C66.3086 93.6523 68.2129 91.6992 68.2129 88.9648L68.2129 68.2129L88.9648 68.2129C91.6504 68.2129 93.6523 66.3574 93.6523 63.6719C93.6523 60.8398 91.6992 58.9355 88.9648 58.9355L68.2129 58.9355L68.2129 38.2324C68.2129 35.4492 66.3086 33.4961 63.5254 33.4961C60.8398 33.4961 58.9355 35.498 58.9355 38.2324Z" fill="white" fill-opacity="0.85"/>
 </g>
</svg>
