<?xml version="1.0" encoding="UTF-8"?>
<!--Generator: Apple Native CoreSVG 326-->
<!DOCTYPE svg
PUBLIC "-//W3C//DTD SVG 1.1//EN"
       "http://www.w3.org/Graphics/SVG/1.1/DTD/svg11.dtd">
<svg version="1.1" xmlns="http://www.w3.org/2000/svg" xmlns:xlink="http://www.w3.org/1999/xlink" viewBox="0 0 127.197 127.295">
 <g>
  <rect height="127.295" opacity="0" width="127.197" x="0" y="0"/>
  <path d="M63.5742 127.197C98.6816 127.197 127.197 98.7305 127.197 63.623C127.197 28.5156 98.6816 0 63.5742 0C28.4668 0 0 28.5156 0 63.623C0 98.7305 28.4668 127.197 63.5742 127.197ZM63.5742 118.115C33.4473 118.115 9.08203 93.75 9.08203 63.623C9.08203 33.4961 33.4473 9.13086 63.5742 9.13086C93.7012 9.13086 118.066 33.4961 118.066 63.623C118.066 93.75 93.7012 118.115 63.5742 118.115Z" fill="white" fill-opacity="0.85"/>
  <path d="M52.3926 98.584L78.125 98.584C80.3711 98.584 82.1289 96.9238 82.1289 94.7266C82.1289 92.5781 80.3711 90.8691 78.125 90.8691L69.5312 90.8691L69.5312 56.7383C69.5312 53.9062 68.0664 51.9531 65.332 51.9531L53.3203 51.9531C51.0742 51.9531 49.3164 53.6133 49.3164 55.7617C49.3164 57.959 51.0742 59.6191 53.3203 59.6191L60.9863 59.6191L60.9863 90.8691L52.3926 90.8691C50.1465 90.8691 48.4375 92.5781 48.4375 94.7266C48.4375 96.9238 50.1465 98.584 52.3926 98.584ZM63.1348 40.8203C67.2852 40.8203 70.5078 37.5 70.5078 33.4473C70.5078 29.2969 67.2852 25.9766 63.1348 25.9766C59.0332 25.9766 55.7617 29.2969 55.7617 33.4473C55.7617 37.5 59.0332 40.8203 63.1348 40.8203Z" fill="white" fill-opacity="0.85"/>
 </g>
</svg>
