<?xml version="1.0" encoding="UTF-8"?>
<!--Generator: Apple Native CoreSVG 326-->
<!DOCTYPE svg
PUBLIC "-//W3C//DTD SVG 1.1//EN"
       "http://www.w3.org/Graphics/SVG/1.1/DTD/svg11.dtd">
<svg version="1.1" xmlns="http://www.w3.org/2000/svg" xmlns:xlink="http://www.w3.org/1999/xlink" viewBox="0 0 131.445 120.361">
 <g>
  <rect height="120.361" opacity="0" width="131.445" x="0" y="0"/>
  <path d="M79.6387 8.10547L129.004 94.4336C130.615 97.2168 131.445 100.244 131.445 103.174C131.445 112.207 125.293 119.336 115.088 119.336L16.3086 119.336C6.15234 119.336 0 112.207 0 103.174C0 100.244 0.78125 97.2656 2.44141 94.4336L51.8066 8.10547C54.8828 2.68555 60.2539 0 65.7227 0C71.1426 0 76.5625 2.68555 79.6387 8.10547ZM59.3262 91.748C59.3262 95.1172 62.2559 97.9004 65.7227 97.9004C69.1406 97.9004 72.1191 95.166 72.1191 91.748C72.1191 88.2812 69.1895 85.5469 65.7227 85.5469C62.207 85.5469 59.3262 88.3301 59.3262 91.748ZM60.498 38.5742L61.2793 72.9492C61.3281 75.8789 62.8906 77.5391 65.7227 77.5391C68.4082 77.5391 70.0195 75.9277 70.0684 72.9492L70.8496 38.623C70.8984 35.6934 68.7012 33.5449 65.6738 33.5449C62.5977 33.5449 60.4492 35.6445 60.498 38.5742Z" fill="white" fill-opacity="0.85"/>
 </g>
</svg>
