<?xml version="1.0" encoding="UTF-8"?>
<!--Generator: Apple Native CoreSVG 326-->
<!DOCTYPE svg
PUBLIC "-//W3C//DTD SVG 1.1//EN"
       "http://www.w3.org/Graphics/SVG/1.1/DTD/svg11.dtd">
<svg version="1.1" xmlns="http://www.w3.org/2000/svg" xmlns:xlink="http://www.w3.org/1999/xlink" viewBox="0 0 143.018 140.771">
 <g>
  <rect height="140.771" opacity="0" width="143.018" x="0" y="0"/>
  <path d="M71.5332 23.291C75.9277 23.291 79.3945 19.3848 79.3945 14.3555C79.3945 9.22852 77.7832 5.85938 74.707 2.24609C72.8027-0.0976562 70.5078-0.0976562 68.6035 1.95312C65.5273 5.61523 63.6719 8.98438 63.6719 14.3555C63.6719 19.3848 67.1875 23.291 71.5332 23.291ZM68.3105 52.002L74.5117 52.002L74.5117 17.334L68.3105 17.334ZM31.1523 72.5586L111.914 72.5586L111.914 66.3574C111.914 54.8828 105.762 48.7793 94.1406 48.7793L48.9258 48.7793C37.3535 48.7793 31.1523 54.8828 31.1523 66.3574ZM9.91211 136.963L133.154 136.963L133.154 97.9492C133.154 86.4258 127.051 80.3711 115.381 80.3711L27.6855 80.3711C16.0645 80.3711 9.91211 86.4258 9.91211 97.9492ZM71.4355 109.912C65.332 109.912 60.9863 117.188 52.0508 117.188C43.3594 117.188 39.2578 109.912 33.4473 109.912C27.5879 109.912 23.4375 117.188 12.0605 117.188L9.91211 117.188L9.91211 109.961L12.0605 109.961C20.9473 109.961 25.0488 102.734 33.4473 102.734C41.7969 102.734 45.1172 109.961 52.0508 109.961C59.9121 109.961 63.0371 102.734 71.4355 102.734C79.8828 102.734 82.9102 109.961 90.8691 109.961C97.8027 109.961 101.074 102.734 109.424 102.734C117.773 102.734 121.924 109.961 130.811 109.961L133.154 109.961L133.154 117.188L130.811 117.188C119.385 117.188 115.234 109.912 109.424 109.912C103.564 109.912 99.4629 117.188 90.8691 117.188C81.8848 117.188 77.5391 109.912 71.4355 109.912ZM4.3457 140.771L138.721 140.771C141.064 140.771 143.018 138.818 143.018 136.426C143.018 134.082 141.064 132.129 138.721 132.129L4.3457 132.129C1.95312 132.129 0 134.082 0 136.426C0 138.818 1.95312 140.771 4.3457 140.771Z" fill="white" fill-opacity="0.85"/>
 </g>
</svg>
