<?xml version="1.0" encoding="UTF-8"?>
<!--Generator: Apple Native CoreSVG 326-->
<!DOCTYPE svg
PUBLIC "-//W3C//DTD SVG 1.1//EN"
       "http://www.w3.org/Graphics/SVG/1.1/DTD/svg11.dtd">
<svg version="1.1" xmlns="http://www.w3.org/2000/svg" xmlns:xlink="http://www.w3.org/1999/xlink" viewBox="0 0 126.855 136.377">
 <g>
  <rect height="136.377" opacity="0" width="126.855" x="0" y="0"/>
  <path d="M67.334 136.377C67.7734 136.279 68.2129 136.035 68.6523 135.791L118.555 107.666C124.072 104.541 126.855 101.318 126.855 93.1641L126.855 43.3594C126.855 41.6016 126.709 40.2344 126.367 39.0137L67.334 72.4121ZM59.5215 136.377L59.5215 72.4121L0.488281 39.0137C0.146484 40.2344 0 41.6016 0 43.3594L0 93.1641C0 101.318 2.7832 104.541 8.30078 107.666L58.2031 135.791C58.6426 136.035 59.082 136.279 59.5215 136.377ZM63.4277 65.5762L90.6738 50.2441L30.8105 16.4551L7.27539 29.7852C5.9082 30.5176 4.88281 31.25 4.05273 32.0801ZM98.6328 45.752L122.803 32.0801C121.973 31.25 120.996 30.5176 119.58 29.7852L73.7305 3.75977C70.2148 1.75781 66.7969 0.732422 63.4277 0.732422C60.0586 0.732422 56.6406 1.75781 53.125 3.75977L38.6719 11.9629Z" fill="white" fill-opacity="0.85"/>
 </g>
</svg>
