<?xml version="1.0" encoding="UTF-8"?>
<!--Generator: Apple Native CoreSVG 326-->
<!DOCTYPE svg
PUBLIC "-//W3C//DTD SVG 1.1//EN"
       "http://www.w3.org/Graphics/SVG/1.1/DTD/svg11.dtd">
<svg version="1.1" xmlns="http://www.w3.org/2000/svg" xmlns:xlink="http://www.w3.org/1999/xlink" viewBox="0 0 141.968 140.503">
 <g>
  <rect height="140.503" opacity="0" width="141.968" x="0" y="0"/>
  <path d="M1.18408 139.319C2.6001 140.735 4.94385 140.686 6.40869 139.221L36.6333 108.948L31.4575 103.723L1.18408 133.997C-0.32959 135.461-0.427246 137.854 1.18408 139.319ZM82.0435 26.1841L73.1567 35.1196L88.4888 50.4517C89.4653 51.4771 89.5142 53.2837 88.4888 54.2114C87.3657 55.2368 85.8521 55.2368 84.729 54.2114L69.3481 38.8306L60.022 48.2056L75.4028 63.4888C76.4282 64.6118 76.4282 66.272 75.4517 67.2974C74.3286 68.3228 72.7661 68.2739 71.6431 67.2974L56.3599 51.9165L46.936 61.2915L62.2681 76.6724C63.2935 77.6978 63.3423 79.3579 62.3169 80.3833C61.2427 81.4575 59.6313 81.4575 58.5571 80.3833L43.1763 65.0513L33.8501 74.4263L49.1821 89.7095C50.2075 90.686 50.2075 92.3462 49.231 93.4204C48.2056 94.5435 46.5942 94.5435 45.4224 93.4692L30.1392 78.0884L22.7661 85.4126C16.6138 91.6138 16.5161 99.0356 22.3755 104.944L35.6079 118.225C41.5161 124.133 49.0356 123.938 55.188 117.737L114.417 58.5571ZM79.7974 15.1489L125.5 60.8521C127.209 62.561 129.944 62.561 131.604 60.8521C133.313 59.1919 133.313 56.4087 131.604 54.7485L124.915 48.0103L127.893 45.0317C129.602 43.3716 129.651 40.6372 127.942 38.9771L118.127 29.2114L126.917 20.4712L134.583 28.186C136.292 29.8462 139.075 29.8462 140.686 28.186C142.395 26.5259 142.395 23.7427 140.686 22.0337L119.934 1.28174C118.225-0.427246 115.491-0.427246 113.782 1.28174C112.122 2.89307 112.122 5.67627 113.782 7.38525L121.497 15.1001L112.805 23.7915L101.672 12.7075C100.061 11.0962 97.2778 11.0474 95.5688 12.7075L92.5903 15.686L85.9497 9.04541C84.1919 7.2876 81.5063 7.38525 79.7974 9.04541C78.1372 10.7544 78.0396 13.3911 79.7974 15.1489Z" fill="white" fill-opacity="0.85"/>
 </g>
</svg>
