<?xml version="1.0" encoding="UTF-8"?>
<!--Generator: Apple Native CoreSVG 326-->
<!DOCTYPE svg
PUBLIC "-//W3C//DTD SVG 1.1//EN"
       "http://www.w3.org/Graphics/SVG/1.1/DTD/svg11.dtd">
<svg version="1.1" xmlns="http://www.w3.org/2000/svg" xmlns:xlink="http://www.w3.org/1999/xlink" viewBox="0 0 121.045 150.146">
 <g>
  <rect height="150.146" opacity="0" width="121.045" x="0" y="0"/>
  <path d="M41.3086 120.557C39.209 120.557 37.8418 119.238 37.7441 117.236L35.7422 46.7773C35.6934 44.7266 37.0605 43.457 39.2578 43.457C41.2109 43.457 42.6758 44.6777 42.7246 46.7285L44.8242 117.188C44.873 119.189 43.457 120.557 41.3086 120.557ZM60.5469 120.557C58.4473 120.557 56.9336 119.189 56.9336 117.188L56.9336 46.7773C56.9336 44.7754 58.4473 43.457 60.5469 43.457C62.6465 43.457 64.1602 44.7754 64.1602 46.7773L64.1602 117.188C64.1602 119.189 62.6465 120.557 60.5469 120.557ZM79.7363 120.557C77.5879 120.557 76.2207 119.189 76.2695 117.236L78.3203 46.7773C78.3691 44.7266 79.834 43.457 81.8359 43.457C83.9844 43.457 85.3516 44.7754 85.3027 46.8262L83.3008 117.236C83.2031 119.287 81.8359 120.557 79.7363 120.557ZM33.3496 27.9297L41.8945 27.9297L41.8945 14.502C41.8945 10.5957 44.5801 8.05664 48.7793 8.05664L72.168 8.05664C76.3672 8.05664 79.0527 10.5957 79.0527 14.502L79.0527 27.9297L87.5977 27.9297L87.5977 14.0137C87.5977 5.32227 81.9824 0 72.6562 0L48.291 0C39.0137 0 33.3496 5.32227 33.3496 14.0137ZM4.05273 32.1777L116.992 32.1777C119.238 32.1777 121.045 30.3223 121.045 28.125C121.045 25.8789 119.238 24.0234 116.992 24.0234L4.05273 24.0234C1.9043 24.0234 0 25.9277 0 28.125C0 30.3711 1.9043 32.1777 4.05273 32.1777ZM31.8848 139.453L89.2578 139.453C97.6562 139.453 103.564 133.74 104.004 125.342L108.643 30.9082L12.4512 30.9082L17.0898 125.391C17.5293 133.789 23.3398 139.453 31.8848 139.453Z" fill="white" fill-opacity="0.85"/>
 </g>
</svg>
