<?xml version="1.0" encoding="UTF-8"?>
<!--Generator: Apple Native CoreSVG 326-->
<!DOCTYPE svg
PUBLIC "-//W3C//DTD SVG 1.1//EN"
       "http://www.w3.org/Graphics/SVG/1.1/DTD/svg11.dtd">
<svg version="1.1" xmlns="http://www.w3.org/2000/svg" xmlns:xlink="http://www.w3.org/1999/xlink" viewBox="0 0 116.211 116.455">
 <g>
  <rect height="116.455" opacity="0" width="116.211" x="0" y="0"/>
  <path d="M31.8848 84.0332C50.2441 102.393 72.2168 116.406 89.8438 116.406C98.1445 116.406 105.371 113.086 110.107 107.764C114.648 102.637 116.211 98.877 116.211 95.5078C116.211 92.8223 114.551 90.4297 110.498 87.5488L95.2637 76.6602C91.5039 73.9746 89.7949 73.4863 87.5488 73.4863C85.5957 73.4863 83.9844 73.8281 80.7617 75.5859L70.8008 81.1035C69.6289 81.7383 69.0918 81.8359 68.2129 81.8359C67.041 81.8359 66.2598 81.543 65.0879 81.1035C60.3027 78.8574 53.6133 73.6816 47.7051 67.7246C41.8457 61.8164 37.207 55.8105 34.8145 51.0254C34.5215 50.3906 34.1309 49.4141 34.1309 48.4375C34.1309 47.6562 34.5703 46.9238 35.0586 46.0449L40.918 36.0352C42.5293 33.3008 42.9688 31.8359 42.9688 29.6875C42.9688 27.2461 42.1387 24.6582 39.7949 21.3867L29.3457 6.73828C26.416 2.53906 24.1211 0 20.752 0C16.5527 0 11.5234 3.22266 7.95898 6.68945C2.73438 11.7188 0 18.6523 0 26.5137C0 44.2871 13.6719 65.8203 31.8848 84.0332Z" fill="white" fill-opacity="0.85"/>
 </g>
</svg>
