<?xml version="1.0" encoding="UTF-8"?>
<!--Generator: Apple Native CoreSVG 326-->
<!DOCTYPE svg
PUBLIC "-//W3C//DTD SVG 1.1//EN"
       "http://www.w3.org/Graphics/SVG/1.1/DTD/svg11.dtd">
<svg version="1.1" xmlns="http://www.w3.org/2000/svg" xmlns:xlink="http://www.w3.org/1999/xlink" viewBox="0 0 114.795 114.795">
 <g>
  <rect height="114.795" opacity="0" width="114.795" x="0" y="0"/>
  <path d="M18.9941 114.795L95.752 114.795C108.398 114.795 114.795 108.398 114.795 95.9961L114.795 18.8477C114.795 6.39648 108.398 0 95.752 0L18.9941 0C6.39648 0 0 6.34766 0 18.8477L0 95.9961C0 108.496 6.39648 114.795 18.9941 114.795ZM19.1895 106.152C12.3535 106.152 8.64258 102.539 8.64258 95.5078L8.64258 19.2871C8.64258 12.3047 12.3535 8.64258 19.1895 8.64258L95.6055 8.64258C102.295 8.64258 106.152 12.3047 106.152 19.2871L106.152 95.5078C106.152 102.539 102.295 106.152 95.6055 106.152Z" fill="white" fill-opacity="0.85"/>
  <path d="M60.498 87.0605C63.2812 87.0605 64.8438 85.2539 64.8438 82.2266L64.8438 32.5195C64.8438 29.4434 63.1348 27.6855 60.2539 27.6855C58.252 27.6855 56.8359 28.2227 54.4922 29.834L42.6758 37.7441C41.4551 38.5742 40.9668 39.4531 40.9668 40.8691C40.9668 42.5781 42.334 44.1406 44.0918 44.1406C44.9219 44.1406 45.5078 43.9941 46.6797 43.2129L55.8105 37.207L56.25 37.207L56.25 82.2266C56.25 85.2539 57.8613 87.0605 60.498 87.0605Z" fill="white" fill-opacity="0.85"/>
 </g>
</svg>
