<?xml version="1.0" encoding="UTF-8"?>
<!--Generator: Apple Native CoreSVG 326-->
<!DOCTYPE svg
PUBLIC "-//W3C//DTD SVG 1.1//EN"
       "http://www.w3.org/Graphics/SVG/1.1/DTD/svg11.dtd">
<svg version="1.1" xmlns="http://www.w3.org/2000/svg" xmlns:xlink="http://www.w3.org/1999/xlink" viewBox="0 0 22.2109 21.5134">
 <g>
  <rect height="21.5134" opacity="0" width="22.2109" x="0" y="0"/>
  <path d="M10.8984 20.2294C11.1562 20.2294 11.4141 20.2216 11.6719 20.1981L12.1953 21.1825C12.3281 21.4325 12.5234 21.5263 12.7969 21.4872C13.0703 21.4403 13.2109 21.2763 13.25 21.0028L13.4141 19.9013C13.9141 19.7606 14.3906 19.5809 14.8594 19.37L15.6797 20.1122C15.8828 20.3075 16.1172 20.3153 16.3516 20.1903C16.5938 20.0575 16.6797 19.8466 16.6172 19.5731L16.3828 18.4794C16.8047 18.1903 17.1953 17.8544 17.5625 17.5028L18.5938 17.9169C18.8594 18.0184 19.0703 17.9559 19.2578 17.7528C19.4375 17.5497 19.4453 17.3231 19.2969 17.0809L18.7031 16.1356C18.9922 15.7138 19.25 15.2763 19.4688 14.8153L20.5781 14.8544C20.8594 14.8622 21.0469 14.7372 21.1406 14.4716C21.2422 14.2216 21.1797 14.0028 20.9609 13.8309L20.0703 13.1513C20.2031 12.6591 20.2969 12.1591 20.3438 11.6356L21.3984 11.2919C21.6719 11.2059 21.8047 11.0263 21.8047 10.7528C21.8047 10.4794 21.6719 10.2919 21.3984 10.2059L20.3438 9.87C20.2969 9.34656 20.2031 8.83875 20.0703 8.34656L20.9531 7.66688C21.1797 7.495 21.2266 7.28406 21.1484 7.01844C21.0469 6.75281 20.8516 6.64344 20.5781 6.65125L19.4688 6.6825C19.25 6.22156 18.9922 5.77625 18.7031 5.35438L19.2891 4.41688C19.4453 4.1825 19.4141 3.95594 19.2578 3.745C19.0703 3.52625 18.8438 3.48719 18.6016 3.58094L17.5625 4.00281C17.1953 3.62781 16.7969 3.3075 16.3828 3.01063L16.6172 1.9325C16.6719 1.65125 16.5859 1.44813 16.3594 1.3075C16.1094 1.17469 15.8828 1.20594 15.6875 1.38563L14.8516 2.12781C14.3906 1.90906 13.9062 1.745 13.4062 1.60438L13.25 0.502815C13.2109 0.221565 13.0547 0.0731273 12.7969 0.0106273C12.5234-0.0362477 12.3203 0.0731273 12.1953 0.315315L11.6641 1.29969C11.4141 1.28406 11.1562 1.26844 10.8984 1.26844C10.6406 1.26844 10.3906 1.28406 10.1328 1.29969L9.60938 0.315315C9.47656 0.0653148 9.27344-0.0206227 9.00781 0.0106273C8.73438 0.0575023 8.58594 0.229377 8.54688 0.495002L8.38281 1.60438C7.88281 1.745 7.40625 1.92469 6.9375 2.13563L6.125 1.38563C5.91406 1.19813 5.6875 1.1825 5.44531 1.3075C5.21094 1.44813 5.125 1.65906 5.17969 1.92469L5.41406 3.02625C4.99219 3.31531 4.60156 3.64344 4.24219 4.00281L3.21094 3.58094C2.95312 3.47938 2.72656 3.54188 2.54688 3.745C2.36719 3.95594 2.35938 4.1825 2.50781 4.41688L3.10156 5.36219C2.80469 5.78406 2.55469 6.22938 2.32812 6.69031L1.22656 6.64344C0.9375 6.63563 0.75 6.76844 0.65625 7.02625C0.5625 7.28406 0.632812 7.495 0.851562 7.66688L1.73438 8.35438C1.59375 8.84656 1.50781 9.34656 1.46094 9.87L0.398438 10.2059C0.132812 10.2919 0 10.4794 0 10.7528C0 11.0263 0.132812 11.2059 0.398438 11.2919L1.46094 11.6356C1.50781 12.1591 1.59375 12.6591 1.73438 13.1513L0.851562 13.8388C0.632812 14.0106 0.578125 14.2216 0.65625 14.4794C0.757812 14.745 0.9375 14.8544 1.21875 14.8466L2.32812 14.8153C2.55469 15.2841 2.80469 15.7216 3.10156 16.1434L2.50781 17.0809C2.35938 17.3231 2.38281 17.5497 2.54688 17.7606C2.73438 17.9716 2.95312 18.0184 3.20312 17.9169L4.24219 17.495C4.60156 17.8622 5 18.1903 5.41406 18.4872L5.1875 19.5731C5.13281 19.8544 5.21875 20.0575 5.44531 20.1981C5.69531 20.3309 5.91406 20.3075 6.11719 20.12L6.95312 19.37C7.41406 19.5888 7.89062 19.7606 8.39062 19.9013L8.54688 21.0028C8.58594 21.2763 8.74219 21.4325 9.00781 21.4872C9.28125 21.5341 9.47656 21.4325 9.60938 21.1903L10.1328 20.1981C10.3906 20.2216 10.6406 20.2294 10.8984 20.2294ZM10.8984 18.8075C6.45312 18.8075 2.84375 15.1981 2.84375 10.7528C2.84375 6.29969 6.45312 2.69031 10.8984 2.69031C15.3516 2.69031 18.9609 6.29969 18.9609 10.7528C18.9609 15.1981 15.3516 18.8075 10.8984 18.8075ZM9.27344 9.22156L10.3125 8.58094L6.91406 2.745L5.83594 3.34656ZM13.0547 11.3309L19.8203 11.3309L19.8203 10.12L13.0547 10.12ZM10.3516 12.9403L9.32812 12.2841L5.76562 18.1278L6.82812 18.7528ZM10.9141 13.2528C12.2969 13.2528 13.4141 12.1356 13.4141 10.7528C13.4141 9.37 12.2969 8.245 10.9141 8.245C9.53125 8.245 8.40625 9.37 8.40625 10.7528C8.40625 12.1356 9.53125 13.2528 10.9141 13.2528ZM10.9141 11.9559C10.2422 11.9559 9.71094 11.4169 9.71094 10.7528C9.71094 10.0888 10.2422 9.54969 10.9141 9.54969C11.5781 9.54969 12.1172 10.0888 12.1172 10.7528C12.1172 11.4169 11.5781 11.9559 10.9141 11.9559Z" fill="white" fill-opacity="0.85"/>
 </g>
</svg>
