<?xml version="1.0" encoding="UTF-8"?>
<!--Generator: Apple Native CoreSVG 326-->
<!DOCTYPE svg
PUBLIC "-//W3C//DTD SVG 1.1//EN"
       "http://www.w3.org/Graphics/SVG/1.1/DTD/svg11.dtd">
<svg version="1.1" xmlns="http://www.w3.org/2000/svg" xmlns:xlink="http://www.w3.org/1999/xlink" viewBox="0 0 138.261 140.869">
 <g>
  <rect height="140.869" opacity="0" width="138.261" x="0" y="0"/>
  <path d="M26.5036 131.055C28.7985 132.764 31.6794 132.227 35.1462 129.688L69.1306 104.785L103.066 129.688C106.582 132.227 109.414 132.764 111.758 131.055C114.004 129.346 114.541 126.514 113.125 122.412L99.7946 82.4707L134.023 57.8613C137.539 55.3711 138.857 52.7832 137.978 50.0488C137.099 47.3633 134.511 46.0449 130.166 46.0449L88.1247 46.0449L75.3317 6.15234C73.9646 2.05078 71.9626 1.42109e-14 69.1306 1.42109e-14C66.2497 1.42109e-14 64.2478 2.05078 62.9294 6.15234L50.0876 46.0449L8.04659 46.0449C3.70088 46.0449 1.16182 47.3633 0.282915 50.0488C-0.644819 52.7832 0.722368 55.3711 4.18917 57.8613L38.4177 82.4707L25.0876 122.412C23.7204 126.514 24.2575 129.346 26.5036 131.055Z" fill="white" fill-opacity="0.85"/>
 </g>
</svg>
