<?xml version="1.0" encoding="UTF-8"?>
<!--Generator: Apple Native CoreSVG 326-->
<!DOCTYPE svg
PUBLIC "-//W3C//DTD SVG 1.1//EN"
       "http://www.w3.org/Graphics/SVG/1.1/DTD/svg11.dtd">
<svg version="1.1" xmlns="http://www.w3.org/2000/svg" xmlns:xlink="http://www.w3.org/1999/xlink" viewBox="0 0 38.3438 20.6484">
 <g>
  <rect height="20.6484" opacity="0" width="38.3438" x="0" y="0"/>
  <path d="M11.859 13.23C10.2139 14.659 9.28906 16.4818 9.28906 18.1094C9.28906 18.5845 9.41122 19.0283 9.6459 19.4062L1.67969 19.4062C0.492188 19.4062 0 18.9375 0 18.0312C0 15.2266 2.82812 11.9062 7.35938 11.9062C9.15029 11.9062 10.6751 12.4249 11.859 13.23ZM10.8516 6.5C10.8516 8.67969 9.25781 10.3594 7.36719 10.3594C5.47656 10.3594 3.88281 8.67969 3.88281 6.51562C3.88281 4.39844 5.49219 2.74219 7.36719 2.74219C9.24219 2.74219 10.8516 4.36719 10.8516 6.5Z" fill="white" fill-opacity="0.85"/>
  <path d="M37.9375 18.0312C37.9375 18.9375 37.4453 19.4062 36.2656 19.4062L28.3289 19.4062C28.5645 19.0283 28.6875 18.5845 28.6875 18.1094C28.6875 16.4762 27.7563 14.6464 26.1003 13.2148C27.2813 12.4185 28.7983 11.9062 30.5781 11.9062C35.1094 11.9062 37.9375 15.2266 37.9375 18.0312ZM34.0703 6.5C34.0703 8.67969 32.4844 10.3594 30.5938 10.3594C28.7031 10.3594 27.1016 8.67969 27.1016 6.51562C27.1016 4.39844 28.7109 2.74219 30.5938 2.74219C32.4688 2.74219 34.0703 4.36719 34.0703 6.5Z" fill="white" fill-opacity="0.85"/>
  <path d="M18.9922 10.1328C21.1719 10.1328 23 8.20312 23 5.69531C23 3.25 21.1562 1.38281 18.9922 1.38281C16.8359 1.38281 14.9922 3.28125 14.9922 5.71094C14.9922 8.20312 16.8203 10.1328 18.9922 10.1328ZM12.1797 19.4062L25.7969 19.4062C26.8125 19.4062 27.4375 18.9141 27.4375 18.1094C27.4375 15.5156 24.1953 11.9375 18.9844 11.9375C13.7734 11.9375 10.5312 15.5156 10.5312 18.1094C10.5312 18.9141 11.1562 19.4062 12.1797 19.4062Z" fill="white" fill-opacity="0.85"/>
 </g>
</svg>
