<?xml version="1.0" encoding="UTF-8"?>
<!--Generator: Apple Native CoreSVG 326-->
<!DOCTYPE svg
PUBLIC "-//W3C//DTD SVG 1.1//EN"
       "http://www.w3.org/Graphics/SVG/1.1/DTD/svg11.dtd">
<svg version="1.1" xmlns="http://www.w3.org/2000/svg" xmlns:xlink="http://www.w3.org/1999/xlink" viewBox="0 0 152.295 66.2598">
 <g>
  <rect height="66.2598" opacity="0" width="152.295" x="0" y="0"/>
  <path d="M152.295 16.4551C152.295 5.71289 146.582 0 135.693 0L16.5527 0C5.71289 0 0 5.66406 0 16.4551L0 49.8047C0 60.5469 5.76172 66.2598 16.6016 66.2598L135.693 66.2598C146.631 66.2598 152.295 60.5469 152.295 49.8047ZM18.6035 9.22852L18.6035 38.1348C18.6035 39.5508 17.627 40.5273 16.2598 40.5273C14.9414 40.5273 13.8672 39.5996 13.8672 38.1836L13.8672 9.22852ZM30.5664 9.22852L30.5664 27.1484C30.5664 28.5645 29.6387 29.541 28.2227 29.541C26.9043 29.541 25.8789 28.6133 25.8789 27.1973L25.8789 9.22852ZM42.5781 9.22852L42.5781 27.1484C42.5781 28.5645 41.6504 29.541 40.2344 29.541C38.916 29.541 37.8906 28.6133 37.8906 27.1973L37.8906 9.22852ZM54.541 9.22852L54.541 27.1484C54.541 28.5645 53.6133 29.541 52.1973 29.541C50.8789 29.541 49.8535 28.6133 49.8535 27.1973L49.8535 9.22852ZM66.5527 9.22852L66.5527 27.1484C66.5527 28.5645 65.5762 29.541 64.209 29.541C62.8906 29.541 61.8164 28.6133 61.8164 27.1973L61.8164 9.22852ZM78.5156 9.22852L78.5156 38.1348C78.5156 39.5508 77.5879 40.5273 76.1719 40.5273C74.8535 40.5273 73.8281 39.5996 73.8281 38.1836L73.8281 9.22852ZM90.5273 9.22852L90.5273 27.1484C90.5273 28.5645 89.5996 29.541 88.1836 29.541C86.8652 29.541 85.8398 28.6133 85.8398 27.1973L85.8398 9.22852ZM102.539 9.22852L102.539 27.1484C102.539 28.5645 101.562 29.541 100.146 29.541C98.877 29.541 97.8027 28.6133 97.8027 27.1973L97.8027 9.22852ZM114.453 9.22852L114.453 27.1484C114.453 28.5645 113.525 29.541 112.109 29.541C110.791 29.541 109.766 28.6133 109.766 27.1973L109.766 9.22852ZM126.465 9.22852L126.465 27.1484C126.465 28.5645 125.537 29.541 124.121 29.541C122.803 29.541 121.777 28.6133 121.777 27.1973L121.777 9.22852ZM138.379 9.22852L138.379 38.1348C138.379 39.5508 137.451 40.5273 136.035 40.5273C134.717 40.5273 133.691 39.5996 133.691 38.1836L133.691 9.22852Z" fill="white" fill-opacity="0.85"/>
 </g>
</svg>
