<?xml version="1.0" encoding="UTF-8"?>
<!--Generator: Apple Native CoreSVG 326-->
<!DOCTYPE svg
PUBLIC "-//W3C//DTD SVG 1.1//EN"
       "http://www.w3.org/Graphics/SVG/1.1/DTD/svg11.dtd">
<svg version="1.1" xmlns="http://www.w3.org/2000/svg" xmlns:xlink="http://www.w3.org/1999/xlink" viewBox="0 0 116.992 94.5801">
 <g>
  <rect height="94.5801" opacity="0" width="116.992" x="0" y="0"/>
  <path d="M0 47.2656C0 48.584 0.537109 49.8047 1.61133 50.7812L43.8477 93.0664C44.9219 94.043 45.9961 94.5312 47.2656 94.5312C49.9512 94.5312 51.9531 92.5781 51.9531 89.9414C51.9531 88.6719 51.5137 87.4023 50.6836 86.5234L33.5449 69.2383L10.7422 48.1934L9.61914 50.9277L28.8574 52.002L112.305 52.002C115.039 52.002 116.992 50 116.992 47.2656C116.992 44.4824 115.039 42.5293 112.305 42.5293L28.8574 42.5293L9.61914 43.5547L10.7422 46.3379L33.5449 25.293L50.6836 7.95898C51.5137 7.08008 51.9531 5.85938 51.9531 4.58984C51.9531 1.95312 49.9512 0 47.2656 0C45.9961 0 44.8242 0.439453 43.5547 1.70898L1.61133 43.7012C0.537109 44.7266 0 45.9473 0 47.2656Z" fill="white" fill-opacity="0.85"/>
 </g>
</svg>
