<?xml version="1.0" encoding="UTF-8"?>
<!--Generator: Apple Native CoreSVG 326-->
<!DOCTYPE svg
PUBLIC "-//W3C//DTD SVG 1.1//EN"
       "http://www.w3.org/Graphics/SVG/1.1/DTD/svg11.dtd">
<svg version="1.1" xmlns="http://www.w3.org/2000/svg" xmlns:xlink="http://www.w3.org/1999/xlink" viewBox="0 0 84.2285 145.166">
 <g>
  <rect height="145.166" opacity="0" width="84.2285" x="0" y="0"/>
  <path d="M17.7734 39.1602L17.7734 26.2207C17.7734 24.6582 18.7012 23.584 20.2637 23.584L33.5449 23.584C35.1074 23.584 36.1328 24.6582 36.1328 26.2207L36.1328 39.1602C36.1328 40.7227 35.1074 41.748 33.5449 41.748L20.2637 41.748C18.7012 41.748 17.7734 40.7227 17.7734 39.1602ZM48.1445 39.1602L48.1445 26.2207C48.1445 24.6582 49.1211 23.584 50.6348 23.584L63.9648 23.584C65.4785 23.584 66.5039 24.6582 66.5039 26.2207L66.5039 39.1602C66.5039 40.7227 65.4785 41.748 63.9648 41.748L50.6348 41.748C49.1211 41.748 48.1445 40.7227 48.1445 39.1602ZM17.7734 66.0156L17.7734 53.0273C17.7734 51.4648 18.7012 50.4883 20.2637 50.4883L33.5449 50.4883C35.1074 50.4883 36.1328 51.4648 36.1328 53.0273L36.1328 66.0156C36.1328 67.5781 35.1074 68.6035 33.5449 68.6035L20.2637 68.6035C18.7012 68.6035 17.7734 67.5781 17.7734 66.0156ZM48.1445 66.0156L48.1445 53.0273C48.1445 51.4648 49.1211 50.4883 50.6348 50.4883L63.9648 50.4883C65.4785 50.4883 66.5039 51.4648 66.5039 53.0273L66.5039 66.0156C66.5039 67.5781 65.4785 68.6035 63.9648 68.6035L50.6348 68.6035C49.1211 68.6035 48.1445 67.5781 48.1445 66.0156ZM17.7734 92.8223L17.7734 79.8828C17.7734 78.3691 18.7012 77.2949 20.2637 77.2949L33.5449 77.2949C35.1074 77.2949 36.1328 78.3691 36.1328 79.8828L36.1328 92.8223C36.1328 94.3848 35.1074 95.459 33.5449 95.459L20.2637 95.459C18.7012 95.459 17.7734 94.3848 17.7734 92.8223ZM48.1445 92.8223L48.1445 79.8828C48.1445 78.3691 49.1211 77.2949 50.6348 77.2949L63.9648 77.2949C65.4785 77.2949 66.5039 78.3691 66.5039 79.8828L66.5039 92.8223C66.5039 94.3848 65.4785 95.459 63.9648 95.459L50.6348 95.459C49.1211 95.459 48.1445 94.3848 48.1445 92.8223ZM9.42383 145.117L74.8047 145.117C80.7129 145.117 84.2285 141.26 84.2285 134.961L84.2285 10.1562C84.2285 3.80859 80.7129 0 74.8047 0L9.42383 0C3.51562 0 0 3.80859 0 10.1562L0 134.961C0 141.26 3.51562 145.117 9.42383 145.117ZM27.1973 136.865L27.1973 118.604C27.1973 115.137 29.1504 113.232 32.6172 113.232L51.6602 113.232C55.2246 113.232 57.0312 115.137 57.0312 118.604L57.0312 136.865Z" fill="white" fill-opacity="0.85"/>
 </g>
</svg>
