<?xml version="1.0" encoding="UTF-8"?>
<!--Generator: Apple Native CoreSVG 326-->
<!DOCTYPE svg
PUBLIC "-//W3C//DTD SVG 1.1//EN"
       "http://www.w3.org/Graphics/SVG/1.1/DTD/svg11.dtd">
<svg version="1.1" xmlns="http://www.w3.org/2000/svg" xmlns:xlink="http://www.w3.org/1999/xlink" viewBox="0 0 13.8828 23.2266">
 <g>
  <rect height="23.2266" opacity="0" width="13.8828" x="0" y="0"/>
  <path d="M2.84375 6.26562L2.84375 4.19531C2.84375 3.94531 2.99219 3.77344 3.24219 3.77344L5.36719 3.77344C5.61719 3.77344 5.78125 3.94531 5.78125 4.19531L5.78125 6.26562C5.78125 6.51562 5.61719 6.67969 5.36719 6.67969L3.24219 6.67969C2.99219 6.67969 2.84375 6.51562 2.84375 6.26562ZM7.70312 6.26562L7.70312 4.19531C7.70312 3.94531 7.85938 3.77344 8.10156 3.77344L10.2344 3.77344C10.4766 3.77344 10.6406 3.94531 10.6406 4.19531L10.6406 6.26562C10.6406 6.51562 10.4766 6.67969 10.2344 6.67969L8.10156 6.67969C7.85938 6.67969 7.70312 6.51562 7.70312 6.26562ZM2.84375 10.5625L2.84375 8.48438C2.84375 8.23438 2.99219 8.07812 3.24219 8.07812L5.36719 8.07812C5.61719 8.07812 5.78125 8.23438 5.78125 8.48438L5.78125 10.5625C5.78125 10.8125 5.61719 10.9766 5.36719 10.9766L3.24219 10.9766C2.99219 10.9766 2.84375 10.8125 2.84375 10.5625ZM7.70312 10.5625L7.70312 8.48438C7.70312 8.23438 7.85938 8.07812 8.10156 8.07812L10.2344 8.07812C10.4766 8.07812 10.6406 8.23438 10.6406 8.48438L10.6406 10.5625C10.6406 10.8125 10.4766 10.9766 10.2344 10.9766L8.10156 10.9766C7.85938 10.9766 7.70312 10.8125 7.70312 10.5625ZM2.84375 14.8516L2.84375 12.7812C2.84375 12.5391 2.99219 12.3672 3.24219 12.3672L5.36719 12.3672C5.61719 12.3672 5.78125 12.5391 5.78125 12.7812L5.78125 14.8516C5.78125 15.1016 5.61719 15.2734 5.36719 15.2734L3.24219 15.2734C2.99219 15.2734 2.84375 15.1016 2.84375 14.8516ZM7.70312 14.8516L7.70312 12.7812C7.70312 12.5391 7.85938 12.3672 8.10156 12.3672L10.2344 12.3672C10.4766 12.3672 10.6406 12.5391 10.6406 12.7812L10.6406 14.8516C10.6406 15.1016 10.4766 15.2734 10.2344 15.2734L8.10156 15.2734C7.85938 15.2734 7.70312 15.1016 7.70312 14.8516ZM1.50781 23.2188L11.9688 23.2188C12.9141 23.2188 13.4766 22.6016 13.4766 21.5938L13.4766 1.625C13.4766 0.609375 12.9141 0 11.9688 0L1.50781 0C0.5625 0 0 0.609375 0 1.625L0 21.5938C0 22.6016 0.5625 23.2188 1.50781 23.2188ZM4.35156 21.8984L4.35156 18.9766C4.35156 18.4219 4.66406 18.1172 5.21875 18.1172L8.26562 18.1172C8.83594 18.1172 9.125 18.4219 9.125 18.9766L9.125 21.8984Z" fill="white" fill-opacity="0.85"/>
 </g>
</svg>
