<?xml version="1.0" encoding="UTF-8"?>
<!--Generator: Apple Native CoreSVG 326-->
<!DOCTYPE svg
PUBLIC "-//W3C//DTD SVG 1.1//EN"
       "http://www.w3.org/Graphics/SVG/1.1/DTD/svg11.dtd">
<svg version="1.1" xmlns="http://www.w3.org/2000/svg" xmlns:xlink="http://www.w3.org/1999/xlink" viewBox="0 0 95.4102 149.658">
 <g>
  <rect height="149.658" opacity="0" width="95.4102" x="0" y="0"/>
  <path d="M0 93.9941C0 98.8281 3.36914 102.051 8.59375 102.051L42.8223 102.051L42.8223 133.936C42.8223 142.432 46.3379 149.658 47.7051 149.658C49.1211 149.658 52.5879 142.432 52.5879 133.936L52.5879 102.051L86.8652 102.051C92.0898 102.051 95.4102 98.8281 95.4102 93.9941C95.4102 80.5664 84.8145 66.8457 67.4316 60.6445L65.3809 31.4453C73.8281 26.5625 81.3477 20.7031 84.668 16.3574C86.1816 14.3066 86.9141 12.3535 86.9141 10.5957C86.9141 7.03125 84.2285 4.39453 80.0781 4.39453L15.3809 4.39453C11.2305 4.39453 8.49609 7.03125 8.49609 10.5957C8.49609 12.3535 9.22852 14.3066 10.791 16.3574C14.0625 20.7031 21.6309 26.6113 30.0293 31.4453L27.9785 60.6445C10.6445 66.8457 0 80.5664 0 93.9941Z" fill="white" fill-opacity="0.85"/>
 </g>
</svg>
