<?xml version="1.0" encoding="UTF-8"?>
<!--Generator: Apple Native CoreSVG 326-->
<!DOCTYPE svg
PUBLIC "-//W3C//DTD SVG 1.1//EN"
       "http://www.w3.org/Graphics/SVG/1.1/DTD/svg11.dtd">
<svg version="1.1" xmlns="http://www.w3.org/2000/svg" xmlns:xlink="http://www.w3.org/1999/xlink" viewBox="0 0 17.4609 17.4609">
 <g>
  <rect height="17.4609" opacity="0" width="17.4609" x="0" y="0"/>
  <path d="M6.32031 17.4609C6.6875 17.4609 6.96094 17.2969 7.16406 17L16.8359 1.83594C16.9922 1.59375 17.0547 1.40625 17.0547 1.21875C17.0547 0.742188 16.7422 0.429688 16.2656 0.429688C15.9375 0.429688 15.7422 0.546875 15.5469 0.867188L6.28125 15.5078L1.54688 9.49219C1.33594 9.20312 1.13281 9.07812 0.8125 9.07812C0.335938 9.07812 0 9.40625 0 9.875C0 10.0781 0.078125 10.2891 0.25 10.5L5.44531 16.9844C5.70312 17.3125 5.96094 17.4609 6.32031 17.4609Z" fill="white" fill-opacity="0.85"/>
 </g>
</svg>
