<?xml version="1.0" encoding="UTF-8"?>
<!--Generator: Apple Native CoreSVG 326-->
<!DOCTYPE svg
PUBLIC "-//W3C//DTD SVG 1.1//EN"
       "http://www.w3.org/Graphics/SVG/1.1/DTD/svg11.dtd">
<svg version="1.1" xmlns="http://www.w3.org/2000/svg" xmlns:xlink="http://www.w3.org/1999/xlink" viewBox="0 0 130.518 130.518">
 <g>
  <rect height="130.518" opacity="0" width="130.518" x="0" y="0"/>
  <path d="M0 77.4902C0 84.7656 4.93164 89.5996 12.2559 89.5996L40.8203 89.5996L40.8203 118.213C40.8203 125.537 45.6543 130.42 52.9297 130.42L77.5879 130.42C84.8633 130.42 89.6973 125.537 89.6973 118.213L89.6973 89.5996L118.262 89.5996C125.586 89.5996 130.518 84.7656 130.518 77.4902L130.518 52.832C130.518 45.5566 125.586 40.7227 118.262 40.7227L89.6973 40.7227L89.6973 12.207C89.6973 4.88281 84.8633 0 77.5879 0L52.9297 0C45.6543 0 40.8203 4.88281 40.8203 12.207L40.8203 40.7227L12.207 40.7227C4.88281 40.7227 0 45.5566 0 52.832Z" fill="white" fill-opacity="0.85"/>
 </g>
</svg>
