<?xml version="1.0" encoding="UTF-8"?>
<!--Generator: Apple Native CoreSVG 326-->
<!DOCTYPE svg
PUBLIC "-//W3C//DTD SVG 1.1//EN"
       "http://www.w3.org/Graphics/SVG/1.1/DTD/svg11.dtd">
<svg version="1.1" xmlns="http://www.w3.org/2000/svg" xmlns:xlink="http://www.w3.org/1999/xlink" viewBox="0 0 158.105 126.807">
 <g>
  <rect height="126.807" opacity="0" width="158.105" x="0" y="0"/>
  <path d="M26.8555 98.4375L28.7109 105.859C31.0547 115.479 36.084 120.215 46.0449 120.215L112.061 120.215C122.07 120.215 127.1 115.576 129.443 105.859L131.299 98.4375ZM24.9512 90.625L133.252 90.625L144.727 43.7012L139.697 40.625L112.695 59.8145C110.254 61.4746 108.447 60.9375 106.982 58.8867L80.957 20.6543L77.2461 20.5566L50.8301 59.2285C49.5117 61.084 47.9492 61.5234 45.7031 59.9609L18.8965 40.9668L13.2324 42.9199ZM14.5996 53.9551C22.6074 53.9551 29.1504 47.4121 29.1504 39.3555C29.1504 31.3965 22.6074 24.8047 14.5996 24.8047C6.54297 24.8047 0 31.3477 0 39.3555C0 47.4121 6.5918 53.9551 14.5996 53.9551ZM79.0527 29.1016C87.1094 29.1016 93.6035 22.6074 93.6035 14.5508C93.6035 6.54297 87.1094 0 79.0527 0C70.9961 0 64.4531 6.49414 64.4531 14.5508C64.4531 22.6074 71.0449 29.1016 79.0527 29.1016ZM143.506 53.9551C151.514 53.9551 158.105 47.4121 158.105 39.3555C158.105 31.3477 151.562 24.8047 143.506 24.8047C135.449 24.8047 128.955 31.3965 128.955 39.3555C128.955 47.4121 135.449 53.9551 143.506 53.9551Z" fill="white" fill-opacity="0.85"/>
 </g>
</svg>
