<?xml version="1.0" encoding="UTF-8"?>
<!--Generator: Apple Native CoreSVG 326-->
<!DOCTYPE svg
PUBLIC "-//W3C//DTD SVG 1.1//EN"
       "http://www.w3.org/Graphics/SVG/1.1/DTD/svg11.dtd">
<svg version="1.1" xmlns="http://www.w3.org/2000/svg" xmlns:xlink="http://www.w3.org/1999/xlink" viewBox="0 0 23.9766 20.9766">
 <g>
  <rect height="20.9766" opacity="0" width="23.9766" x="0" y="0"/>
  <path d="M8.89062 20.0859L14.6797 20.0859L14.6797 13.5391C14.6797 13.1016 14.3984 12.8203 13.9609 12.8203L9.61719 12.8203C9.17969 12.8203 8.89062 13.1016 8.89062 13.5391ZM0.742188 10.4141C0.976562 10.4141 1.17188 10.2891 1.34375 10.1406L11.4062 1.69531C11.5234 1.59375 11.6562 1.54688 11.7812 1.54688C11.9141 1.54688 12.0469 1.59375 12.1641 1.69531L22.2266 10.1406C22.3984 10.2891 22.5859 10.4141 22.8281 10.4141C23.2891 10.4141 23.5703 10.0781 23.5703 9.73438C23.5703 9.52344 23.4844 9.32031 23.2891 9.15625L12.9141 0.453125C12.5547 0.148438 12.1719 0 11.7812 0C11.3984 0 11.0156 0.148438 10.6562 0.453125L0.28125 9.15625C0.0859375 9.32031 0 9.52344 0 9.73438C0 10.0781 0.273438 10.4141 0.742188 10.4141ZM18.4453 5.52344L20.7422 7.46094L20.7422 3.01562C20.7422 2.625 20.4844 2.375 20.0938 2.375L19.1016 2.375C18.7109 2.375 18.4453 2.625 18.4453 3.01562ZM4.98438 20.9609L18.5859 20.9609C19.9609 20.9609 20.7422 20.1875 20.7422 18.8359L20.7422 7.69531L19.3594 6.73438L19.3594 18.5C19.3594 19.2109 19 19.5781 18.2891 19.5781L5.27344 19.5781C4.57031 19.5781 4.21094 19.2109 4.21094 18.5L4.21094 6.75L2.82812 7.69531L2.82812 18.8359C2.82812 20.1953 3.60938 20.9609 4.98438 20.9609Z" fill="white" fill-opacity="0.85"/>
 </g>
</svg>
