<?xml version="1.0" encoding="UTF-8"?>
<!--Generator: Apple Native CoreSVG 326-->
<!DOCTYPE svg
PUBLIC "-//W3C//DTD SVG 1.1//EN"
       "http://www.w3.org/Graphics/SVG/1.1/DTD/svg11.dtd">
<svg version="1.1" xmlns="http://www.w3.org/2000/svg" xmlns:xlink="http://www.w3.org/1999/xlink" viewBox="0 0 114.795 114.795">
 <g>
  <rect height="114.795" opacity="0" width="114.795" x="0" y="0"/>
  <path d="M114.795 18.8477L114.795 95.9961C114.795 108.398 108.398 114.795 95.752 114.795L18.9941 114.795C6.39648 114.795 0 108.496 0 95.9961L0 18.8477C0 6.34766 6.39648 0 18.9941 0L95.752 0C108.398 0 114.795 6.39648 114.795 18.8477ZM55.4688 23.1445L55.4688 28.7109C46.1914 29.4434 38.0859 34.9609 38.0859 44.043C38.0859 53.3691 45.9961 56.9336 53.9062 58.8379L55.4688 59.2285L55.4688 79.4922C49.5117 79.0527 45.1172 76.3672 43.3594 70.7031C42.627 68.8965 41.6504 68.1641 40.1367 68.1641C38.4277 68.1641 37.0605 69.2871 37.0605 71.1914C37.0605 71.7773 37.1582 72.4121 37.3535 73.0469C39.502 80.9082 47.5586 84.6191 55.4688 85.1562L55.4688 90.9668C55.4688 92.041 56.3477 92.9199 57.4219 92.9199C58.4961 92.9199 59.375 92.041 59.375 90.9668L59.375 85.1562C69.2871 84.6191 77.832 79.6387 77.832 69.4336C77.832 60.0098 70.2148 56.2988 61.4258 54.248L59.375 53.7598L59.375 34.4727C64.8926 34.9121 69.043 37.7441 70.5078 42.8711C71.0449 44.6289 72.168 45.5078 73.7305 45.5078C75.2441 45.5078 76.8555 44.5312 76.8555 42.5781C76.8555 35.2051 68.1641 29.4434 59.375 28.7109L59.375 23.1445C59.375 22.1191 58.4961 21.2402 57.4219 21.2402C56.3477 21.2402 55.4688 22.1191 55.4688 23.1445ZM60.2539 60.3516C66.1133 61.7676 71.3867 63.916 71.3867 69.9219C71.3867 76.5625 65.625 79.1016 59.375 79.541L59.375 60.1562ZM55.4688 52.8809L54.9316 52.7344C49.5117 51.416 44.5312 49.0234 44.5312 43.5547C44.5312 37.8906 49.9512 35.0586 55.4688 34.4727Z" fill="white" fill-opacity="0.85"/>
 </g>
</svg>
