<?xml version="1.0" encoding="UTF-8"?>
<!--Generator: Apple Native CoreSVG 326-->
<!DOCTYPE svg
PUBLIC "-//W3C//DTD SVG 1.1//EN"
       "http://www.w3.org/Graphics/SVG/1.1/DTD/svg11.dtd">
<svg version="1.1" xmlns="http://www.w3.org/2000/svg" xmlns:xlink="http://www.w3.org/1999/xlink" viewBox="0 0 127.197 127.295">
 <g>
  <rect height="127.295" opacity="0" width="127.197" x="0" y="0"/>
  <path d="M63.5742 127.197C98.6816 127.197 127.197 98.7305 127.197 63.623C127.197 28.5156 98.6816 0 63.5742 0C28.4668 0 0 28.5156 0 63.623C0 98.7305 28.4668 127.197 63.5742 127.197ZM63.5742 118.115C33.4473 118.115 9.08203 93.75 9.08203 63.623C9.08203 33.4961 33.4473 9.13086 63.5742 9.13086C93.7012 9.13086 118.066 33.4961 118.066 63.623C118.066 93.75 93.7012 118.115 63.5742 118.115Z" fill="white" fill-opacity="0.85"/>
  <path d="M63.4766 74.9512C66.1133 74.9512 67.6758 73.3887 67.7246 70.5078L68.5059 36.9629C68.5547 34.1309 66.3574 32.0312 63.4277 32.0312C60.4492 32.0312 58.3984 34.082 58.4473 36.9141L59.1797 70.5078C59.2285 73.3398 60.791 74.9512 63.4766 74.9512ZM63.4766 94.8242C66.8457 94.8242 69.6777 92.1387 69.6777 88.8184C69.6777 85.4492 66.8945 82.8125 63.4766 82.8125C60.1074 82.8125 57.3242 85.498 57.3242 88.8184C57.3242 92.0898 60.1562 94.8242 63.4766 94.8242Z" fill="white" fill-opacity="0.85"/>
 </g>
</svg>
