<?xml version="1.0" encoding="UTF-8"?>
<!--Generator: Apple Native CoreSVG 326-->
<!DOCTYPE svg
PUBLIC "-//W3C//DTD SVG 1.1//EN"
       "http://www.w3.org/Graphics/SVG/1.1/DTD/svg11.dtd">
<svg version="1.1" xmlns="http://www.w3.org/2000/svg" xmlns:xlink="http://www.w3.org/1999/xlink" viewBox="0 0 127.197 127.295">
 <g>
  <rect height="127.295" opacity="0" width="127.197" x="0" y="0"/>
  <path d="M127.197 63.623C127.197 98.6328 98.6328 127.197 63.5742 127.197C28.5645 127.197 0 98.6328 0 63.623C0 28.5645 28.5645 0 63.5742 0C98.6328 0 127.197 28.5645 127.197 63.623ZM53.0762 51.709C50.7812 51.709 48.9746 53.4668 48.9746 55.6641C48.9746 57.959 50.7812 59.668 53.0762 59.668L60.8887 59.668L60.8887 91.5527L52.1484 91.5527C49.8047 91.5527 48.0469 93.3105 48.0469 95.5078C48.0469 97.8027 49.8047 99.5117 52.1484 99.5117L78.4668 99.5117C80.8105 99.5117 82.6172 97.8027 82.6172 95.5078C82.6172 93.3105 80.8105 91.5527 78.4668 91.5527L69.7266 91.5527L69.7266 56.6895C69.7266 53.7598 68.2129 51.709 65.3809 51.709ZM55.5176 32.7148C55.5176 36.9629 58.8867 40.3809 63.1348 40.3809C67.3828 40.3809 70.7031 36.9629 70.7031 32.7148C70.7031 28.4668 67.3828 25.0488 63.1348 25.0488C58.8867 25.0488 55.5176 28.4668 55.5176 32.7148Z" fill="white" fill-opacity="0.85"/>
 </g>
</svg>
