<?xml version="1.0" encoding="UTF-8"?>
<!--Generator: Apple Native CoreSVG 326-->
<!DOCTYPE svg
PUBLIC "-//W3C//DTD SVG 1.1//EN"
       "http://www.w3.org/Graphics/SVG/1.1/DTD/svg11.dtd">
<svg version="1.1" xmlns="http://www.w3.org/2000/svg" xmlns:xlink="http://www.w3.org/1999/xlink" viewBox="0 0 20.4219 18.3828">
 <g>
  <rect height="18.3828" opacity="0" width="20.4219" x="0" y="0"/>
  <path d="M3.03906 18.3828L16.9688 18.3828C18.9922 18.3828 20.0156 17.3672 20.0156 15.375L20.0156 3.03125C20.0156 1.03906 18.9922 0.0234375 16.9688 0.0234375L3.03906 0.0234375C1.02344 0.0234375 0 1.03125 0 3.03125L0 15.375C0 17.375 1.02344 18.3828 3.03906 18.3828ZM2.92969 17C1.92969 17 1.38281 16.4688 1.38281 15.4375L1.38281 6.11719C1.38281 5.07812 1.92969 4.55469 2.92969 4.55469L17.0703 4.55469C18.0625 4.55469 18.625 5.07812 18.625 6.11719L18.625 15.4375C18.625 16.4688 18.0625 17 17.0703 17ZM8.01562 8.14844L8.60938 8.14844C8.94531 8.14844 9.03906 8.05469 9.03906 7.72656L9.03906 7.14062C9.03906 6.8125 8.94531 6.72656 8.60938 6.72656L8.01562 6.72656C7.6875 6.72656 7.59375 6.8125 7.59375 7.14062L7.59375 7.72656C7.59375 8.05469 7.6875 8.14844 8.01562 8.14844ZM11.4141 8.14844L12.0078 8.14844C12.3359 8.14844 12.4297 8.05469 12.4297 7.72656L12.4297 7.14062C12.4297 6.8125 12.3359 6.72656 12.0078 6.72656L11.4141 6.72656C11.0781 6.72656 10.9844 6.8125 10.9844 7.14062L10.9844 7.72656C10.9844 8.05469 11.0781 8.14844 11.4141 8.14844ZM14.8047 8.14844L15.3984 8.14844C15.7266 8.14844 15.8281 8.05469 15.8281 7.72656L15.8281 7.14062C15.8281 6.8125 15.7266 6.72656 15.3984 6.72656L14.8047 6.72656C14.4766 6.72656 14.375 6.8125 14.375 7.14062L14.375 7.72656C14.375 8.05469 14.4766 8.14844 14.8047 8.14844ZM4.625 11.4844L5.21875 11.4844C5.54688 11.4844 5.64844 11.3984 5.64844 11.0703L5.64844 10.4766C5.64844 10.1562 5.54688 10.0625 5.21875 10.0625L4.625 10.0625C4.29688 10.0625 4.19531 10.1562 4.19531 10.4766L4.19531 11.0703C4.19531 11.3984 4.29688 11.4844 4.625 11.4844ZM8.01562 11.4844L8.60938 11.4844C8.94531 11.4844 9.03906 11.3984 9.03906 11.0703L9.03906 10.4766C9.03906 10.1562 8.94531 10.0625 8.60938 10.0625L8.01562 10.0625C7.6875 10.0625 7.59375 10.1562 7.59375 10.4766L7.59375 11.0703C7.59375 11.3984 7.6875 11.4844 8.01562 11.4844ZM11.4141 11.4844L12.0078 11.4844C12.3359 11.4844 12.4297 11.3984 12.4297 11.0703L12.4297 10.4766C12.4297 10.1562 12.3359 10.0625 12.0078 10.0625L11.4141 10.0625C11.0781 10.0625 10.9844 10.1562 10.9844 10.4766L10.9844 11.0703C10.9844 11.3984 11.0781 11.4844 11.4141 11.4844ZM14.8047 11.4844L15.3984 11.4844C15.7266 11.4844 15.8281 11.3984 15.8281 11.0703L15.8281 10.4766C15.8281 10.1562 15.7266 10.0625 15.3984 10.0625L14.8047 10.0625C14.4766 10.0625 14.375 10.1562 14.375 10.4766L14.375 11.0703C14.375 11.3984 14.4766 11.4844 14.8047 11.4844ZM4.625 14.8281L5.21875 14.8281C5.54688 14.8281 5.64844 14.7422 5.64844 14.4141L5.64844 13.8203C5.64844 13.4922 5.54688 13.4062 5.21875 13.4062L4.625 13.4062C4.29688 13.4062 4.19531 13.4922 4.19531 13.8203L4.19531 14.4141C4.19531 14.7422 4.29688 14.8281 4.625 14.8281ZM8.01562 14.8281L8.60938 14.8281C8.94531 14.8281 9.03906 14.7422 9.03906 14.4141L9.03906 13.8203C9.03906 13.4922 8.94531 13.4062 8.60938 13.4062L8.01562 13.4062C7.6875 13.4062 7.59375 13.4922 7.59375 13.8203L7.59375 14.4141C7.59375 14.7422 7.6875 14.8281 8.01562 14.8281ZM11.4141 14.8281L12.0078 14.8281C12.3359 14.8281 12.4297 14.7422 12.4297 14.4141L12.4297 13.8203C12.4297 13.4922 12.3359 13.4062 12.0078 13.4062L11.4141 13.4062C11.0781 13.4062 10.9844 13.4922 10.9844 13.8203L10.9844 14.4141C10.9844 14.7422 11.0781 14.8281 11.4141 14.8281Z" fill="white" fill-opacity="0.85"/>
 </g>
</svg>
