<?xml version="1.0" encoding="UTF-8"?>
<!--Generator: Apple Native CoreSVG 326-->
<!DOCTYPE svg
PUBLIC "-//W3C//DTD SVG 1.1//EN"
       "http://www.w3.org/Graphics/SVG/1.1/DTD/svg11.dtd">
<svg version="1.1" xmlns="http://www.w3.org/2000/svg" xmlns:xlink="http://www.w3.org/1999/xlink" viewBox="0 0 114.795 114.795">
 <g>
  <rect height="114.795" opacity="0" width="114.795" x="0" y="0"/>
  <path d="M114.795 18.8477L114.795 95.9961C114.795 108.398 108.398 114.795 95.752 114.795L18.9941 114.795C6.39648 114.795 0 108.496 0 95.9961L0 18.8477C0 6.34766 6.39648 0 18.9941 0L95.752 0C108.398 0 114.795 6.39648 114.795 18.8477ZM46.875 45.459C44.6289 45.459 42.8223 47.2168 42.8223 49.4141C42.8223 51.709 44.6289 53.418 46.875 53.418L54.7363 53.418L54.7363 85.3027L45.9961 85.3027C43.6523 85.3027 41.8945 87.0605 41.8945 89.2578C41.8945 91.5527 43.6523 93.2617 45.9961 93.2617L72.3145 93.2617C74.6582 93.2617 76.4648 91.5527 76.4648 89.2578C76.4648 87.0605 74.6582 85.3027 72.3145 85.3027L63.5742 85.3027L63.5742 50.4395C63.5742 47.5098 62.0605 45.459 59.2285 45.459ZM49.3652 26.4648C49.3652 30.7129 52.7344 34.1309 56.9824 34.1309C61.2305 34.1309 64.5508 30.7129 64.5508 26.4648C64.5508 22.2168 61.2305 18.7988 56.9824 18.7988C52.7344 18.7988 49.3652 22.2168 49.3652 26.4648Z" fill="white" fill-opacity="0.85"/>
 </g>
</svg>
