<?xml version="1.0" encoding="UTF-8"?>
<!--Generator: Apple Native CoreSVG 326-->
<!DOCTYPE svg
PUBLIC "-//W3C//DTD SVG 1.1//EN"
       "http://www.w3.org/Graphics/SVG/1.1/DTD/svg11.dtd">
<svg version="1.1" xmlns="http://www.w3.org/2000/svg" xmlns:xlink="http://www.w3.org/1999/xlink" viewBox="0 0 24.0781 18.3672">
 <g>
  <rect height="18.3672" opacity="0" width="24.0781" x="0" y="0"/>
  <path d="M23.6719 3.01562L23.6719 15.3594C23.6719 17.3438 22.6484 18.3672 20.625 18.3672L3.03906 18.3672C1.02344 18.3672 0 17.3594 0 15.3594L0 3.01562C0 1.01562 1.02344 0 3.03906 0L20.625 0C22.6484 0 23.6719 1.02344 23.6719 3.01562ZM3.08594 13.375C3.08594 13.6562 3.22656 13.8594 3.53125 13.8594L11.5938 13.8594C11.8984 13.8594 12.0469 13.6562 12.0469 13.375C12.0469 12.4062 10.6094 9.89062 7.5625 9.89062C4.51562 9.89062 3.08594 12.4062 3.08594 13.375ZM14.2031 12.7188C13.8828 12.7188 13.6484 12.9609 13.6484 13.2656C13.6484 13.5625 13.8828 13.7969 14.2031 13.7969L19.8125 13.7969C20.125 13.7969 20.3594 13.5625 20.3594 13.2656C20.3594 12.9609 20.125 12.7188 19.8125 12.7188ZM14.2031 8.65625C13.8828 8.65625 13.6484 8.89062 13.6484 9.1875C13.6484 9.49219 13.8828 9.73438 14.2031 9.73438L19.8125 9.73438C20.125 9.73438 20.3594 9.49219 20.3594 9.1875C20.3594 8.89062 20.125 8.65625 19.8125 8.65625ZM5.32812 6.75C5.32812 8.14062 6.32812 9.17969 7.5625 9.17969C8.79688 9.1875 9.78906 8.14062 9.78906 6.75C9.78906 5.44531 8.79688 4.35938 7.5625 4.35938C6.32812 4.35938 5.32812 5.44531 5.32812 6.75ZM14.2031 4.58594C13.8828 4.58594 13.6484 4.82031 13.6484 5.125C13.6484 5.42969 13.8828 5.67188 14.2031 5.67188L19.8125 5.67188C20.125 5.67188 20.3594 5.42969 20.3594 5.125C20.3594 4.82031 20.125 4.58594 19.8125 4.58594Z" fill="white" fill-opacity="0.85"/>
 </g>
</svg>
