<?xml version="1.0" encoding="UTF-8"?>
<!--Generator: Apple Native CoreSVG 326-->
<!DOCTYPE svg
PUBLIC "-//W3C//DTD SVG 1.1//EN"
       "http://www.w3.org/Graphics/SVG/1.1/DTD/svg11.dtd">
<svg version="1.1" xmlns="http://www.w3.org/2000/svg" xmlns:xlink="http://www.w3.org/1999/xlink" viewBox="0 0 147.949 114.795">
 <g>
  <rect height="114.795" opacity="0" width="147.949" x="0" y="0"/>
  <path d="M147.949 18.8477L147.949 95.9961C147.949 108.398 141.553 114.795 128.906 114.795L18.9941 114.795C6.39648 114.795 0 108.496 0 95.9961L0 18.8477C0 6.34766 6.39648 0 18.9941 0L128.906 0C141.553 0 147.949 6.39648 147.949 18.8477ZM19.2871 83.5938C19.2871 85.3516 20.166 86.6211 22.0703 86.6211L72.4609 86.6211C74.3652 86.6211 75.293 85.3516 75.293 83.5938C75.293 77.5391 66.3086 61.8164 47.2656 61.8164C28.2227 61.8164 19.2871 77.5391 19.2871 83.5938ZM88.7695 79.4922C86.7676 79.4922 85.3027 81.0059 85.3027 82.9102C85.3027 84.7656 86.7676 86.2305 88.7695 86.2305L123.828 86.2305C125.781 86.2305 127.246 84.7656 127.246 82.9102C127.246 81.0059 125.781 79.4922 123.828 79.4922ZM88.7695 54.1016C86.7676 54.1016 85.3027 55.5664 85.3027 57.4219C85.3027 59.3262 86.7676 60.8398 88.7695 60.8398L123.828 60.8398C125.781 60.8398 127.246 59.3262 127.246 57.4219C127.246 55.5664 125.781 54.1016 123.828 54.1016ZM33.3008 42.1875C33.3008 50.8789 39.5508 57.373 47.2656 57.373C54.9805 57.4219 61.1816 50.8789 61.1816 42.1875C61.1816 34.0332 54.9805 27.2461 47.2656 27.2461C39.5508 27.2461 33.3008 34.0332 33.3008 42.1875ZM88.7695 28.6621C86.7676 28.6621 85.3027 30.127 85.3027 32.0312C85.3027 33.9355 86.7676 35.4492 88.7695 35.4492L123.828 35.4492C125.781 35.4492 127.246 33.9355 127.246 32.0312C127.246 30.127 125.781 28.6621 123.828 28.6621Z" fill="white" fill-opacity="0.85"/>
 </g>
</svg>
