<?xml version="1.0" encoding="UTF-8"?>
<!--Generator: Apple Native CoreSVG 326-->
<!DOCTYPE svg
PUBLIC "-//W3C//DTD SVG 1.1//EN"
       "http://www.w3.org/Graphics/SVG/1.1/DTD/svg11.dtd">
<svg version="1.1" xmlns="http://www.w3.org/2000/svg" xmlns:xlink="http://www.w3.org/1999/xlink" viewBox="0 0 15.2243 21.5078">
 <g>
  <rect height="21.5078" opacity="0" width="15.2243" x="0" y="0"/>
  <path d="M7.46373 4.78906C8.79966 4.78906 9.85435 3.71875 9.85435 2.39844C9.85435 1.07031 8.78404 0 7.46373 0C6.14341 0 5.06529 1.07031 5.06529 2.39844C5.06529 3.71875 6.1356 4.78906 7.46373 4.78906ZM7.40904 13.2578C7.73716 13.2578 7.98716 13.4531 8.08873 13.8359L9.72154 20.1016C10.0809 21.5078 11.9872 21.0312 11.784 19.7266C11.7059 19.1797 10.2919 13.875 10.0887 12.6797C9.94029 11.8047 10.0028 9.63281 10.0028 8.54688C10.0028 8.25 10.245 8.10938 10.534 8.22656L13.3622 9.35156C14.0809 9.64844 14.6122 9.29688 14.7606 8.80469C14.9169 8.33594 14.7137 7.75 14.0184 7.46094L11.0184 6.23438C10.3153 5.94531 9.65904 5.78125 8.93248 5.69531C8.47935 5.91406 7.95591 6.03125 7.40904 6.03125C6.86216 6.03125 6.33873 5.91406 5.87779 5.69531C5.15904 5.78125 4.49498 5.94531 3.79966 6.23438L0.79185 7.46094C0.0965378 7.75-0.106587 8.33594 0.0496628 8.80469C0.205913 9.29688 0.737163 9.64844 1.45591 9.35156L4.28404 8.22656C4.5731 8.10938 4.80748 8.25 4.80748 8.54688C4.80748 9.63281 4.86998 11.8047 4.72154 12.6797C4.51841 13.875 3.11216 19.1797 3.03404 19.7266C2.83091 21.0312 4.72935 21.5078 5.09654 20.1016L6.72935 13.8359C6.83091 13.4531 7.08091 13.2578 7.40904 13.2578Z" fill="white" fill-opacity="0.85"/>
 </g>
</svg>
