<?xml version="1.0" encoding="UTF-8"?>
<!--Generator: Apple Native CoreSVG 326-->
<!DOCTYPE svg
PUBLIC "-//W3C//DTD SVG 1.1//EN"
       "http://www.w3.org/Graphics/SVG/1.1/DTD/svg11.dtd">
<svg version="1.1" xmlns="http://www.w3.org/2000/svg" xmlns:xlink="http://www.w3.org/1999/xlink" viewBox="0 0 142.48 113.428">
 <g>
  <rect height="113.428" opacity="0" width="142.48" x="0" y="0"/>
  <path d="M35.4492 0C21.6797 0 7.22656 6.20117 0.732422 17.0898C0.0488281 18.3105 0 19.043 0 21.1426L0 109.18C0 111.67 1.61133 113.281 4.29688 113.281C5.71289 113.281 6.93359 112.793 8.00781 111.865C15.7715 104.932 26.6113 101.465 37.4023 101.465C47.8027 101.465 56.8848 105.371 63.1348 110.742C63.8184 111.328 64.5996 111.621 65.2832 111.621C66.6016 111.621 67.6758 110.645 67.6758 109.131L67.6758 17.334C67.6758 15.7227 67.5293 15.332 66.4062 13.8184C59.9121 5.0293 48.1445 0 35.4492 0ZM107.08 0C94.3359 0 82.5684 5.0293 76.0742 13.8184C75 15.332 74.8535 15.7227 74.8535 17.334L74.8535 109.131C74.8535 110.645 75.8789 111.621 77.1973 111.621C77.8809 111.621 78.6621 111.328 79.3457 110.742C85.5957 105.371 94.6777 101.465 105.078 101.465C115.918 101.465 126.709 104.932 134.521 111.865C135.547 112.793 136.768 113.281 138.184 113.281C140.869 113.281 142.48 111.67 142.48 109.18L142.48 21.1426C142.48 19.043 142.432 18.2617 141.748 17.0898C135.254 6.20117 120.85 0 107.08 0Z" fill="white" fill-opacity="0.85"/>
 </g>
</svg>
