<?xml version="1.0" encoding="UTF-8"?>
<!--Generator: Apple Native CoreSVG 326-->
<!DOCTYPE svg
PUBLIC "-//W3C//DTD SVG 1.1//EN"
       "http://www.w3.org/Graphics/SVG/1.1/DTD/svg11.dtd">
<svg version="1.1" xmlns="http://www.w3.org/2000/svg" xmlns:xlink="http://www.w3.org/1999/xlink" viewBox="0 0 114.795 114.795">
 <g>
  <rect height="114.795" opacity="0" width="114.795" x="0" y="0"/>
  <path d="M18.9941 114.795L95.752 114.795C108.398 114.795 114.795 108.398 114.795 95.9961L114.795 18.8477C114.795 6.39648 108.398 0 95.752 0L18.9941 0C6.39648 0 0 6.34766 0 18.8477L0 95.9961C0 108.496 6.39648 114.795 18.9941 114.795ZM19.1895 106.152C12.3535 106.152 8.64258 102.539 8.64258 95.5078L8.64258 19.2871C8.64258 12.3047 12.3535 8.64258 19.1895 8.64258L95.6055 8.64258C102.295 8.64258 106.152 12.3047 106.152 19.2871L106.152 95.5078C106.152 102.539 102.295 106.152 95.6055 106.152Z" fill="white" fill-opacity="0.85"/>
  <path d="M43.2129 85.7422L75.5371 85.7422C77.6367 85.7422 79.1504 84.3262 79.1504 82.1777C79.1504 79.9316 77.6367 78.5645 75.5371 78.5645L51.2207 78.5645L51.2207 78.1738L67.0898 61.084C72.9004 54.834 76.4648 49.9512 76.4648 43.3594C76.4648 33.8867 69.043 27.6855 57.7637 27.6855C48.877 27.6855 41.0645 33.0566 39.2578 40.2344C39.0137 41.0645 38.9648 41.7969 38.9648 42.5781C38.9648 44.6777 40.3809 46.0938 42.5293 46.0938C44.5312 46.0938 45.5566 44.9219 46.3867 43.2617C47.8027 38.8672 51.6113 34.6191 58.1055 34.6191C64.502 34.6191 68.7012 38.3301 68.7012 43.8965C68.7012 48.4863 65.2344 52.3926 61.3281 56.5918L40.7715 78.8086C39.7949 79.8828 39.3066 80.9082 39.3066 82.1289C39.3066 84.3262 40.7715 85.7422 43.2129 85.7422Z" fill="white" fill-opacity="0.85"/>
 </g>
</svg>
